<svg width="66" height="45" viewBox="0 0 66 45" fill="none" xmlns="http://www.w3.org/2000/svg"><path fill-rule="evenodd" clip-rule="evenodd" d="M34.3862 3.20553C31.7801 4.70215 29.6226 5.93618 29.5917 5.94781C29.5608 5.95944 32.5417 11.1921 36.216 17.5761L42.8964 29.1832H49.3163H55.7361L55.5807 28.9072C55.2205 28.267 39.2666 0.693364 39.1988 0.593732C39.1328 0.496763 38.5892 0.791762 34.3862 3.20553ZM23.3804 13.3119C20.7548 14.8251 18.6146 16.0944 18.6243 16.1326C18.634 16.1708 20.3364 19.1301 22.4073 22.7089L26.1727 29.2157L26.1729 30.5634L26.1732 31.9111H27.5371H28.901V30.5475V29.184L33.9033 29.1674L38.9057 29.1507L33.5401 19.863C30.5891 14.7548 28.17 10.572 28.1644 10.568C28.1587 10.5639 26.0059 11.7987 23.3804 13.3119ZM12.1483 23.1437C9.56062 24.6427 7.42152 25.8915 7.39469 25.9187C7.36787 25.946 7.75945 26.6916 8.26495 27.5757L9.18398 29.1832H15.5747C20.6606 29.1832 21.959 29.1667 21.9341 29.102C21.8574 28.9022 16.9537 20.4489 16.9062 20.4344C16.8769 20.4255 14.7358 21.6446 12.1483 23.1437ZM22.0814 31.4906V33.798L21.6105 33.5404C19.9511 32.6327 17.9592 32.6082 16.2035 33.4738C15.0573 34.0389 14.2297 34.8557 13.6743 35.9704C13.2067 36.9088 13.0877 37.4279 13.0937 38.5034C13.0998 39.5896 13.2256 40.1462 13.6662 41.0364C14.6336 42.9909 16.6461 44.2504 18.8014 44.2504C19.7307 44.2504 20.6394 44.0217 21.5439 43.5601L22.0814 43.2859V43.6387V43.9916H23.4453H24.8092V36.5874V29.1832H23.4453H22.0814V31.4906ZM38.9681 31.4808V33.7784L38.4972 33.5273C36.4922 32.458 34.0119 32.6555 32.2093 34.028C31.1494 34.835 30.3739 36.0603 30.0973 37.3652C29.9902 37.87 29.9781 38.9441 30.0734 39.4819C30.6156 42.543 33.4371 44.6035 36.5229 44.1916C37.1753 44.1045 38.1974 43.7616 38.658 43.4753L38.9681 43.2826V43.637V43.9916H40.3321H41.696V36.5874V29.1832H40.3321H38.9681V31.4808ZM5.34704 32.8846C3.15599 33.194 1.3241 34.7175 0.660578 36.7823C-0.188436 39.4241 1.038 42.3554 3.51606 43.6072C5.20091 44.4583 7.07476 44.4598 8.78305 43.6114L9.4163 43.2969V43.6443V43.9916H10.7478H12.0792V38.4709V32.9503H10.7478H9.4163V33.3671V33.784L8.79967 33.47C8.42933 33.2815 7.95481 33.1025 7.61143 33.0219C6.94739 32.866 5.91983 32.8037 5.34704 32.8846ZM47.5228 32.8868C46.1029 33.1111 44.6883 33.9166 43.8452 34.9804C43.4096 35.5302 43.0397 36.2421 42.8245 36.9446C42.6635 37.4704 42.6457 37.6239 42.6479 38.4709C42.6505 39.5607 42.7676 40.1102 43.1804 40.9715C43.9288 42.533 45.2854 43.6386 47.0218 44.1023C47.6198 44.262 49.096 44.2586 49.7066 44.0961C50.268 43.9467 50.8132 43.7258 51.2371 43.4757L51.5683 43.2805V43.6361V43.9916H52.9322H54.2961V38.4709V32.9503H52.9322H51.5683V33.3804C51.5683 33.7165 51.5505 33.796 51.4871 33.7441C51.2582 33.5571 50.3012 33.1429 49.8206 33.0228C49.1933 32.8661 48.0733 32.7998 47.5228 32.8868ZM59.5245 32.863C57.5481 33.0976 56.2128 34.0167 55.779 35.4409C55.6671 35.8084 55.6487 36.0023 55.6736 36.5595C55.701 37.1768 55.724 37.2749 55.9472 37.7265C56.5395 38.9248 57.3998 39.353 60.1157 39.8013C61.4462 40.021 61.8951 40.1658 62.152 40.4584C62.561 40.9243 62.313 41.6086 61.6029 41.9736C61.3096 42.1244 61.2058 42.1406 60.5312 42.1406C59.947 42.1406 59.7088 42.1126 59.4376 42.012C58.8059 41.7778 58.3804 41.2884 58.2839 40.6852L58.2414 40.4194H56.8208H55.4002V40.6331C55.4002 40.9788 55.5818 41.5767 55.8307 42.0503C56.614 43.5409 58.5071 44.3551 60.8935 44.2275C63.5667 44.0846 65.1335 42.8803 65.3146 40.8292C65.4666 39.1075 64.3313 37.853 62.2091 37.3979C61.8042 37.3111 61.0638 37.1675 60.5637 37.0789C59.4283 36.8779 59.0325 36.7512 58.7414 36.496C58.4523 36.2428 58.3887 35.9303 58.5548 35.5803C58.6445 35.3913 58.7534 35.2969 59.0328 35.1659C59.3669 35.0091 59.4617 34.9962 60.2714 34.9962C61.1103 34.9962 61.1614 35.0039 61.4511 35.1742C61.8128 35.3868 62.02 35.6973 62.0799 36.1167L62.124 36.425L63.5034 36.4426C65.0791 36.4626 64.9506 36.5258 64.7828 35.8141C64.5822 34.9632 63.9014 34.0363 63.1348 33.5707C62.2369 33.0252 60.6983 32.7236 59.5245 32.863ZM26.1732 38.4709V43.9916H27.5371H28.901V38.4709V32.9503H27.5371H26.1732V38.4709ZM7.0176 35.4581C8.26832 35.8291 9.16592 36.8405 9.36161 38.0991C9.51178 39.065 9.17449 40.0048 8.41654 40.7326C6.93778 42.1526 4.62143 41.8758 3.50197 40.1453C3.15884 39.6148 3.02908 39.0792 3.06188 38.3286C3.08539 37.7923 3.11695 37.6597 3.32589 37.2197C3.99883 35.8028 5.60158 35.0379 7.0176 35.4581ZM19.6827 35.457C20.2673 35.6287 20.7613 35.9314 21.1697 36.3678C22.3893 37.6716 22.3521 39.5125 21.0816 40.7326C19.8458 41.9192 17.9841 41.9503 16.731 40.8051C16.1312 40.2568 15.8194 39.6628 15.7163 38.8717C15.5222 37.3821 16.5689 35.8575 18.0613 35.4562C18.5313 35.3298 19.2508 35.3301 19.6827 35.457ZM36.9621 35.5754C38.1685 36.0651 38.9681 37.2451 38.9681 38.5359C38.9681 40.0563 37.8614 41.3351 36.3163 41.6C35.304 41.7736 34.3246 41.449 33.5829 40.6939C32.8881 39.9866 32.6352 39.3231 32.679 38.3224C32.702 37.7958 32.7346 37.6582 32.9366 37.2346C33.3395 36.3902 33.9893 35.8077 34.8748 35.497C35.4654 35.2899 36.3394 35.3227 36.9621 35.5754ZM49.2345 35.4581C49.8129 35.6296 50.2104 35.8666 50.6253 36.2873C51.6404 37.3165 51.8527 38.6974 51.1954 39.9954C50.9527 40.4747 50.2978 41.0969 49.7822 41.3382C47.6814 42.3212 45.2636 40.7748 45.269 38.4515C45.272 37.1265 46.3173 35.8174 47.6713 35.4429C48.086 35.3283 48.8211 35.3354 49.2345 35.4581Z" fill="#2D2D2D"></path>
        </svg>