<svg width="39" height="47" viewBox="0 0 39 47" fill="none" xmlns="http://www.w3.org/2000/svg"><path fill-rule="evenodd" clip-rule="evenodd" d="M28.2425 0.0238611C26.2658 0.214361 23.9451 1.3593 22.3169 2.94736C20.575 4.64628 19.3979 7.00795 19.1915 9.21795C19.1598 9.55733 19.1744 10.3649 19.2163 10.5905L19.2446 10.743L19.4407 10.7708C19.727 10.8115 20.4316 10.787 20.7936 10.7239C22.1747 10.4831 23.613 9.80336 24.8986 8.78394C25.2872 8.47571 26.006 7.74832 26.3598 7.30502C26.8748 6.65981 27.3121 5.97031 27.6651 5.2468C28.1793 4.19306 28.4839 3.19622 28.6505 2.02226C28.6986 1.68297 28.7208 0.625799 28.6855 0.35281C28.6367 -0.0241183 28.646 -0.00209532 28.5379 0.00142652C28.4859 0.00311883 28.3529 0.013227 28.2425 0.0238611ZM27.357 11.3344C26.8248 11.3658 26.1029 11.4822 25.4703 11.6385C24.6375 11.8443 24.0126 12.0567 22.543 12.6334C21.3507 13.1013 20.9809 13.2316 20.5013 13.353C19.8928 13.5071 19.359 13.5032 18.701 13.3401C18.2351 13.2246 17.8947 13.1035 16.6702 12.618C15.4918 12.1508 15.0621 11.9952 14.5046 11.8339C13.1468 11.4412 12.0632 11.3539 10.6968 11.5269C9.22355 11.7134 7.79805 12.2017 6.5118 12.9604C4.01113 14.4353 2.14293 16.8175 1.13703 19.8138C0.394078 22.0269 0.133965 24.5356 0.361604 27.2926C0.570056 29.817 1.18718 32.4966 2.14446 35.0338C2.75893 36.6624 3.58992 38.378 4.41525 39.722C5.16981 40.9507 6.69065 43.0136 7.63551 44.09C9.39303 46.0922 11.0231 46.945 12.8444 46.815C13.8033 46.7465 14.4114 46.5756 15.8876 45.9597C16.8398 45.5623 17.2375 45.4137 17.7301 45.2713C19.2194 44.8406 20.9022 44.8028 22.3601 45.1671C22.9702 45.3196 23.3214 45.4466 24.3611 45.8908C25.6508 46.4417 26.1447 46.5974 26.9568 46.7089C27.3174 46.7584 28.0904 46.7776 28.3975 46.7447C29.8167 46.5927 31.1118 45.8881 32.4002 44.5669C33.1865 43.7607 33.9819 42.7472 35.1255 41.0941C36.3864 39.2717 37.5091 37.0471 38.2072 34.9881C38.4194 34.3623 38.4207 34.3564 38.3527 34.3354C38.1225 34.2642 37.2416 33.7807 36.7791 33.4717C34.1361 31.7062 32.5405 29.1609 32.1956 26.1606C31.9087 23.665 32.4592 21.2914 33.7946 19.2656C34.5687 18.0912 35.6873 16.9715 36.8877 16.1691C37.0418 16.0662 37.1678 15.9708 37.1678 15.9573C37.1678 15.9185 36.8539 15.4984 36.5814 15.1723C34.6542 12.867 31.9305 11.5423 28.7063 11.3422C28.3591 11.3206 27.659 11.3166 27.357 11.3344Z" fill="#2D2D2D"></path>
        </svg>