<svg width="36" height="36" viewBox="0 0 36 36" fill="none" xmlns="http://www.w3.org/2000/svg"><path d="M11.7045 8.59668C12.588 8.59668 13.383 8.67318 14.112 8.82918C14.8365 8.98368 15.4545 9.23868 15.9765 9.59118C16.491 9.94368 16.893 10.4117 17.1825 10.9997C17.463 11.5802 17.6025 12.3062 17.6025 13.1642C17.6025 14.0942 17.3925 14.8712 16.971 15.4907C16.5465 16.1117 15.921 16.6202 15.087 17.0132C16.2225 17.3417 17.064 17.9162 17.622 18.7322C18.183 19.5557 18.4575 20.5412 18.4575 21.6962C18.4575 22.6337 18.279 23.4392 17.9205 24.1157C17.575 24.7821 17.0738 25.3553 16.4595 25.7867C15.8232 26.2298 15.1124 26.555 14.361 26.7467C13.5732 26.9535 12.762 27.0573 11.9475 27.0557H3V8.59668H11.7045ZM11.178 16.0547C11.898 16.0547 12.495 15.8837 12.966 15.5372C13.434 15.1952 13.6605 14.6312 13.6605 13.8587C13.6605 13.4297 13.584 13.0757 13.434 12.7982C13.2879 12.5312 13.0716 12.3092 12.8085 12.1562C12.5331 11.9929 12.2292 11.8834 11.913 11.8337C11.5683 11.7694 11.2181 11.7387 10.8675 11.7422H7.065V16.0547H11.178ZM11.4045 23.9132C11.805 23.9132 12.186 23.8787 12.5445 23.7977C12.906 23.7197 13.227 23.5937 13.5 23.4062C13.773 23.2262 13.998 22.9817 14.16 22.6697C14.3235 22.3607 14.403 21.9572 14.403 21.4727C14.403 20.5217 14.1345 19.8452 13.6035 19.4357C13.071 19.0307 12.357 18.8297 11.4825 18.8297H7.065V23.9147H11.4045V23.9132ZM24.252 23.8517C24.8025 24.3887 25.596 24.6587 26.628 24.6587C27.3675 24.6587 28.0065 24.4712 28.545 24.0992C29.076 23.7257 29.4 23.3267 29.5245 22.9142H32.757C32.238 24.5222 31.4505 25.6712 30.3735 26.3627C29.31 27.0572 28.0155 27.4022 26.5035 27.4022C25.4505 27.4022 24.5025 27.2327 23.6535 26.8967C22.8386 26.5793 22.1022 26.0891 21.495 25.4597C20.8978 24.8156 20.4362 24.0581 20.1375 23.2322C19.8092 22.3188 19.6466 21.3542 19.6575 20.3837C19.6575 19.3847 19.824 18.4502 20.151 17.5877C20.4614 16.754 20.9381 15.992 21.552 15.3482C22.1595 14.7182 22.8795 14.2217 23.718 13.8572C24.5997 13.4863 25.5485 13.3015 26.505 13.3142C27.636 13.3142 28.6245 13.5332 29.4735 13.9742C30.2968 14.3951 31.0107 15.0022 31.5585 15.7472C32.103 16.4867 32.4915 17.3342 32.733 18.2837C32.9745 19.2317 33.0585 20.2217 32.9895 21.2582H23.343C23.3445 22.3142 23.7 23.3147 24.252 23.8517ZM28.47 16.8302C28.0335 16.3472 27.2955 16.0862 26.3925 16.0862C25.806 16.0862 25.3215 16.1837 24.9315 16.3847C24.5749 16.5648 24.2585 16.8153 24.0015 17.1212C23.7758 17.3989 23.6084 17.7193 23.5095 18.0632C23.423 18.35 23.3672 18.6451 23.343 18.9437H29.316C29.229 18.0077 28.908 17.3162 28.47 16.8302ZM22.593 9.83568H30.0765V11.6582H22.593V9.83568Z" fill="black" ></path></svg>