<svg width="36" height="36" viewBox="0 0 36 36" fill="none" xmlns="http://www.w3.org/2000/svg"><path d="M17.9985 11.0658C16.1589 11.0658 14.3948 11.7966 13.094 13.0973C11.7932 14.3981 11.0625 16.1623 11.0625 18.0018C11.0625 19.8414 11.7932 21.6056 13.094 22.9063C14.3948 24.2071 16.1589 24.9378 17.9985 24.9378C19.838 24.9378 21.6022 24.2071 22.903 22.9063C24.2037 21.6056 24.9345 19.8414 24.9345 18.0018C24.9345 16.1623 24.2037 14.3981 22.903 13.0973C21.6022 11.7966 19.838 11.0658 17.9985 11.0658ZM17.9985 22.5063C16.8034 22.5063 15.6573 22.0316 14.8123 21.1865C13.9672 20.3415 13.4925 19.1954 13.4925 18.0003C13.4925 16.8052 13.9672 15.6591 14.8123 14.8141C15.6573 13.969 16.8034 13.4943 17.9985 13.4943C19.1936 13.4943 20.3397 13.969 21.1847 14.8141C22.0298 15.6591 22.5045 16.8052 22.5045 18.0003C22.5045 19.1954 22.0298 20.3415 21.1847 21.1865C20.3397 22.0316 19.1936 22.5063 17.9985 22.5063Z" fill="black" ></path><path d="M25.209 12.4278C26.102 12.4278 26.826 11.7039 26.826 10.8108C26.826 9.91777 26.102 9.19381 25.209 9.19381C24.3159 9.19381 23.592 9.91777 23.592 10.8108C23.592 11.7039 24.3159 12.4278 25.209 12.4278Z" fill="black" ></path><path d="M30.7995 9.16681C30.4522 8.27008 29.9216 7.45574 29.2415 6.7759C28.5614 6.09607 27.7469 5.56572 26.85 5.21881C25.8005 4.82485 24.6918 4.61182 23.571 4.58881C22.1265 4.52581 21.669 4.50781 18.006 4.50781C14.343 4.50781 13.8735 4.50781 12.441 4.58881C11.3211 4.61065 10.2131 4.82371 9.16499 5.21881C8.2679 5.56531 7.45314 6.09552 6.77299 6.77541C6.09285 7.45529 5.56233 8.26985 5.21549 9.16681C4.82145 10.2162 4.60891 11.3251 4.58699 12.4458C4.52249 13.8888 4.50299 14.3463 4.50299 18.0108C4.50299 21.6738 4.50299 22.1403 4.58699 23.5758C4.60949 24.6978 4.82099 25.8048 5.21549 26.8563C5.56331 27.753 6.09433 28.5672 6.77464 29.247C7.45495 29.9268 8.26959 30.4572 9.16649 30.8043C10.2126 31.2141 11.321 31.4424 12.444 31.4793C13.8885 31.5423 14.346 31.5618 18.009 31.5618C21.672 31.5618 22.1415 31.5618 23.574 31.4793C24.6946 31.4565 25.8033 31.244 26.853 30.8508C27.7496 30.5031 28.5639 29.9723 29.2439 29.2923C29.924 28.6123 30.4548 27.7979 30.8025 26.9013C31.197 25.8513 31.4085 24.7443 31.431 23.6223C31.4955 22.1793 31.515 21.7218 31.515 18.0573C31.515 14.3928 31.515 13.9278 31.431 12.4923C31.4135 11.3557 31.1999 10.2307 30.7995 9.16681ZM28.9725 23.4648C28.9628 24.3293 28.805 25.1857 28.506 25.9968C28.2807 26.5801 27.9359 27.1098 27.4936 27.5518C27.0513 27.9938 26.5214 28.3384 25.938 28.5633C25.1358 28.861 24.2885 29.0188 23.433 29.0298C22.008 29.0958 21.606 29.1123 17.952 29.1123C14.295 29.1123 13.9215 29.1123 12.4695 29.0298C11.6144 29.0193 10.7675 28.8615 9.96599 28.5633C9.38052 28.3398 8.84849 27.9959 8.40433 27.5538C7.96016 27.1117 7.61374 26.5812 7.38749 25.9968C7.09266 25.1944 6.93496 24.3481 6.92099 23.4933C6.85649 22.0683 6.84149 21.6663 6.84149 18.0123C6.84149 14.3568 6.84149 13.9833 6.92099 12.5298C6.93069 11.6658 7.08847 10.8099 7.38749 9.99931C7.84499 8.81581 8.78249 7.88431 9.96599 7.43131C10.7679 7.13452 11.6145 6.97676 12.4695 6.96481C13.896 6.90031 14.2965 6.88231 17.952 6.88231C21.6075 6.88231 21.9825 6.88231 23.433 6.96481C24.2886 6.97511 25.136 7.13292 25.938 7.43131C26.5214 7.65672 27.0512 8.00162 27.4934 8.44386C27.9357 8.8861 28.2806 9.41592 28.506 9.99931C28.8008 10.8017 28.9585 11.6481 28.9725 12.5028C29.037 13.9293 29.0535 14.3298 29.0535 17.9853C29.0535 21.6393 29.0535 22.0323 28.989 23.4663H28.9725V23.4648Z" fill="black" ></path>
              </svg>