<svg width="114" height="19" viewBox="0 0 114 19" fill="none" xmlns="http://www.w3.org/2000/svg"><path fill-rule="evenodd" clip-rule="evenodd" d="M5.15881 0.728929C3.17078 0.884412 1.74211 1.55585 0.987533 2.68928C0.526377 3.38201 0.32763 4.08655 0.297896 5.13404C0.281036 5.7279 0.310563 6.08921 0.411601 6.52566C0.661968 7.60708 1.38598 8.48892 2.78509 9.41662C3.28416 9.7475 3.63505 9.9541 4.79465 10.5997C6.24707 11.4084 6.68578 11.7006 7.15901 12.1744C7.50572 12.5215 7.65858 12.7663 7.73729 13.1001C7.83081 13.4969 7.77044 14.0497 7.59275 14.4239C7.34565 14.9442 6.88304 15.1887 6.14758 15.1878C5.29794 15.1867 4.73717 14.8107 4.55769 14.1216C4.52166 13.9833 4.51217 13.759 4.51217 13.0462V12.1455H2.34153H0.170898V12.8986C0.170898 13.71 0.201852 14.1428 0.290908 14.5766C0.647635 16.3141 1.87684 17.447 3.89354 17.8969C5.34004 18.2196 7.20635 18.1841 8.56017 17.808C9.40981 17.572 10.0899 17.2046 10.6176 16.6967C11.3053 16.0348 11.6391 15.3172 11.7873 14.1824C11.8595 13.6297 11.8591 12.462 11.7866 11.9968C11.5901 10.736 10.8627 9.78991 9.31002 8.7758C8.79599 8.44007 8.33817 8.1776 7.17343 7.55085C5.7384 6.7787 5.21679 6.43892 4.83797 6.02965C4.53551 5.70284 4.42297 5.40323 4.42297 4.92477C4.42297 4.00623 4.97621 3.46197 5.90851 3.46343C6.54371 3.46441 7.00688 3.69946 7.2417 4.14001C7.40167 4.44015 7.42617 4.59388 7.42617 5.29791V5.93096H9.44814H11.4701L11.4698 5.31397C11.4694 4.11197 11.367 3.5182 11.0514 2.88642C10.4594 1.70146 9.21796 0.99779 7.3202 0.77145C6.85128 0.715519 5.63588 0.691612 5.15881 0.728929ZM57.7671 0.817509C55.5888 0.987086 54.1072 1.75543 53.4165 3.07363C53.2716 3.35022 53.1246 3.74367 53.0566 4.03692C52.8662 4.85837 52.871 5.92671 53.0684 6.67959C53.3337 7.69111 54.1098 8.59427 55.4775 9.48316C55.8863 9.74887 56.316 10.0005 57.2045 10.4944C57.6366 10.7345 58.1923 11.0521 58.4393 11.1999C59.4522 11.8061 60.0284 12.3448 60.2383 12.8819C60.3311 13.1192 60.3513 13.6551 60.2799 13.981C60.1473 14.5861 59.8275 14.9282 59.2538 15.0791C58.9954 15.147 58.4441 15.1478 58.1916 15.0806C57.7663 14.9675 57.4115 14.701 57.2523 14.3751C57.1085 14.0807 57.0843 13.8766 57.0837 12.9558L57.0832 12.1158H54.939H52.7949L52.8101 13.0896C52.8228 13.8963 52.8358 14.1195 52.886 14.3905C53.2084 16.1291 54.344 17.2658 56.2465 17.7539C57.7511 18.14 59.7397 18.1202 61.1735 17.7049C62.0289 17.4572 62.6421 17.113 63.1829 16.5772C64.0344 15.7337 64.3516 14.7595 64.3503 12.993C64.3497 12.2455 64.3172 11.9401 64.1879 11.4647C63.9358 10.5377 63.1084 9.59818 61.7961 8.74892C61.3587 8.46582 60.8393 8.16975 59.7811 7.60018C58.2966 6.80124 57.7891 6.47106 57.4102 6.05751C57.0439 5.65773 56.9195 5.17225 57.039 4.60827C57.1878 3.90576 57.7008 3.52367 58.4956 3.5234C59.0916 3.52322 59.5645 3.7699 59.8 4.20388C59.9502 4.4808 59.9732 4.61565 59.989 5.31397L60.0037 5.9607H61.9927H63.9816V5.27796C63.9816 4.90247 63.9668 4.45755 63.9487 4.28928C63.735 2.30439 62.3726 1.15738 59.8783 0.862082C59.3958 0.804991 58.2411 0.780608 57.7671 0.817509ZM106.606 0.805525C106.229 0.843259 105.607 0.946528 105.29 1.02402C104.343 1.2558 103.635 1.63168 103.05 2.21293C102.373 2.88529 102.041 3.60484 101.86 4.78617C101.809 5.12087 101.786 12.8969 101.834 13.5133C101.878 14.0752 101.931 14.3769 102.056 14.777C102.683 16.7807 104.777 17.8728 107.826 17.7856C110.916 17.6971 112.791 16.4266 113.164 14.1675C113.263 13.5646 113.282 13.0105 113.282 10.6458V8.33948H110.412H107.543V9.52887V10.7183H108.376H109.208L109.208 12.1232C109.207 13.6575 109.195 13.7964 109.04 14.0823C108.772 14.5745 108.286 14.8443 107.617 14.8729C106.724 14.9111 106.088 14.5088 105.886 13.7778C105.837 13.6002 105.833 13.3099 105.833 9.36532C105.833 5.38735 105.836 5.12964 105.887 4.91243C106.075 4.1136 106.637 3.69182 107.513 3.69182C108.048 3.69182 108.414 3.82479 108.721 4.13079C109.081 4.48936 109.148 4.7234 109.17 5.70052L109.186 6.40672H111.219H113.252V5.89067C113.252 4.1035 112.921 3.06896 112.078 2.22878C111.347 1.49906 110.434 1.09407 109.015 0.870378C108.696 0.820067 108.462 0.808083 107.677 0.801542C107.154 0.797201 106.672 0.798984 106.606 0.805525ZM68.1273 1.24307C68.1188 1.26528 68.1168 4.1054 68.1228 7.55448C68.1326 13.1423 68.139 13.86 68.1818 14.1418C68.3477 15.2337 68.67 15.9213 69.3159 16.5616C70.1789 17.417 71.3704 17.8417 73.2065 17.9483C74.4447 18.0201 75.7087 17.875 76.6393 17.5541C78.3558 16.9622 79.2918 15.7283 79.4425 13.8584C79.4626 13.6096 79.4734 11.3201 79.4734 7.33905V1.20314H77.4371H75.4009L75.3929 7.51434L75.3849 13.8255L75.3185 14.021C75.1498 14.5169 74.819 14.8354 74.3132 14.9892C74.0447 15.0708 73.4867 15.0624 73.2303 14.973C72.7738 14.8138 72.4889 14.5383 72.297 14.0707L72.233 13.9147L72.2182 7.56637L72.2033 1.21801L70.173 1.21036C68.4856 1.204 68.1402 1.20953 68.1273 1.24307ZM17.4641 1.31464C17.4126 1.56135 14.503 17.3939 14.503 17.4276C14.503 17.4613 14.8642 17.468 16.6723 17.468H18.8416L18.8584 17.3714C18.893 17.1724 21.0447 2.7858 21.0447 2.75342C21.0447 2.73481 21.0714 2.71961 21.1042 2.71961C21.1369 2.71961 21.1636 2.73638 21.1636 2.75687C21.1636 2.7932 23.2573 17.1796 23.2905 17.3714L23.3072 17.468H25.4771H27.6469L27.6314 17.4011C27.6118 17.3163 24.6723 1.27195 24.6723 1.2495C24.6723 1.24037 23.0543 1.23287 21.0768 1.23287H17.4812L17.4641 1.31464ZM31.2325 1.44833C31.2181 1.63875 30.8835 16.9689 30.8859 17.3268L30.8869 17.468H32.9088H34.9308L34.931 16.2266C34.9316 13.1445 35.0227 2.88348 35.0497 2.85648C35.0655 2.84063 35.0866 2.83572 35.0964 2.8456C35.1063 2.85547 35.7154 6.11945 36.45 10.0989C37.1846 14.0783 37.7925 17.3644 37.8009 17.4011L37.8162 17.468H39.8632H41.9103L41.9411 17.3119C41.958 17.2261 42.564 13.9445 43.2877 10.0195C44.0114 6.0945 44.6149 2.87045 44.6288 2.8549C44.6448 2.83706 44.6636 2.83706 44.6799 2.8549C44.6992 2.87604 44.8085 15.545 44.8036 17.193L44.8027 17.468H46.826H48.8492L48.8314 16.9402C48.8216 16.6499 48.7479 13.2814 48.6678 9.45453C48.5876 5.62767 48.5132 2.21228 48.5026 1.86474L48.4833 1.23287L45.1934 1.2329L41.9036 1.23296L40.9079 7.43622C39.9691 13.2852 39.8912 13.7324 39.8245 13.6582C39.819 13.6521 39.3671 10.8573 38.8203 7.44743L37.8261 1.24774L34.5375 1.24019L31.2488 1.23261L31.2325 1.44833ZM83.9931 9.27612V17.3194H85.9705H87.9478L87.9476 16.9551C87.9475 16.7548 87.9007 13.8478 87.8437 10.4952C87.7867 7.14265 87.74 4.32939 87.7399 4.24352C87.7396 3.99826 87.8102 4.0376 87.8999 4.33272C87.9409 4.46766 88.3503 5.82243 88.8098 7.34336C89.2693 8.86429 90.1353 11.7312 90.7343 13.7142L91.8236 17.3197L94.6953 17.3121L97.567 17.3045L97.5745 9.26869L97.582 1.23287H95.5741H93.5663L93.5833 1.835C93.5927 2.16619 93.6392 4.8055 93.6868 7.70018C93.7343 10.5949 93.7797 13.1941 93.7878 13.4762C93.8012 13.949 93.7983 13.9891 93.7507 13.9891C93.7076 13.9891 93.3954 12.9448 91.8596 7.66301C90.8478 4.18366 90.0139 1.31351 90.0064 1.28491C89.9934 1.23579 89.8247 1.23287 86.9929 1.23287H83.9931V9.27612Z" fill="#2D2D2D"></path>
        </svg>